<?xml version="1.0" standalone="no"?>
<!DOCTYPE svg PUBLIC "-//W3C//DTD SVG 20010904//EN"
 "http://www.w3.org/TR/2001/REC-SVG-20010904/DTD/svg10.dtd">
<svg version="1.0" xmlns="http://www.w3.org/2000/svg"
 width="1000.000000pt" height="900.000000pt" viewBox="0 0 1000.000000 900.000000"
 preserveAspectRatio="xMidYMid meet">
<metadata>
Created by potrace 1.16, written by Peter Selinger 2001-2019
</metadata>
<g transform="translate(0.000000,900.000000) scale(0.100000,-0.100000)"
fill="#000000" stroke="none">
<path d="M4667 6206 c-93 -127 -225 -220 -420 -299 -135 -55 -195 -74 -264
-83 -47 -6 -55 -4 -84 21 -47 39 -125 74 -196 87 -49 9 -63 15 -65 31 -17 112
-408 92 -661 -35 -89 -45 -263 -223 -301 -308 -16 -36 -35 -76 -43 -90 -7 -14
-21 -42 -29 -62 -24 -58 -38 -48 -31 22 8 69 41 141 103 220 50 65 127 140
143 140 13 0 15 26 2 34 -11 7 -139 -25 -208 -53 -116 -46 -224 -141 -287
-254 -67 -120 -80 -208 -51 -348 9 -40 13 -75 9 -78 -3 -3 -33 -7 -67 -8 -77
-2 -178 -38 -255 -93 -106 -74 -202 -220 -202 -307 0 -53 17 -56 57 -10 42 50
93 85 155 106 67 23 178 37 178 23 0 -6 -37 -28 -83 -50 -105 -51 -205 -141
-243 -219 -24 -48 -28 -69 -28 -147 -1 -116 9 -166 33 -166 10 0 23 11 29 25
22 47 34 29 27 -36 -6 -48 -3 -69 10 -100 10 -22 16 -42 12 -45 -22 -23 -140
-22 -283 1 -133 22 15 -160 159 -196 81 -20 73 -34 -25 -50 -73 -12 -87 -21
-67 -45 30 -37 100 -58 199 -60 52 -1 99 -3 105 -3 5 -1 -7 -18 -27 -38 -112
-118 -133 -258 -61 -408 22 -48 33 -60 51 -60 19 0 31 14 63 74 87 165 109
190 109 121 0 -66 54 -161 101 -181 27 -11 28 -14 21 -53 -13 -74 -5 -197 17
-258 40 -115 103 -188 220 -258 144 -84 372 -132 480 -99 31 9 49 7 126 -19
50 -16 134 -40 188 -52 97 -23 99 -23 93 -49 -4 -14 -11 -60 -16 -101 -11 -96
-12 -98 -67 -140 -172 -131 -309 -256 -445 -404 -107 -116 -125 -141 -173
-240 -91 -190 -125 -334 -155 -654 -25 -278 -28 -673 -5 -820 22 -137 20 -132
67 -132 32 0 39 3 34 15 -3 8 -13 52 -23 98 -15 69 -17 137 -18 422 0 241 4
348 12 367 7 15 17 75 23 135 16 152 71 384 93 391 4 1 42 -44 85 -100 42 -56
100 -127 128 -158 110 -120 307 -381 333 -441 24 -53 57 -238 66 -371 7 -96 7
-98 -14 -98 -12 0 -31 -5 -41 -10 -13 -7 -21 -7 -25 0 -4 6 -13 7 -23 1 -9 -5
-42 -14 -72 -20 -30 -6 -78 -25 -106 -41 -63 -35 -160 -123 -180 -161 -14 -29
-14 -29 13 -29 20 0 34 9 48 30 26 39 108 103 165 129 24 11 46 18 48 16 2 -2
-16 -21 -40 -43 -24 -22 -58 -61 -76 -86 l-33 -46 33 1 c28 0 40 9 75 54 24
30 76 76 120 105 64 43 82 51 108 46 16 -4 78 -9 138 -13 64 -3 107 -10 107
-16 0 -6 -22 -36 -50 -68 -32 -37 -50 -67 -50 -83 0 -24 3 -26 45 -26 34 0 47
4 52 18 27 76 32 83 52 72 21 -11 100 14 189 59 l42 21 0 -40 c0 -23 5 -61 11
-86 10 -37 15 -44 36 -44 24 0 25 2 17 33 -5 17 -9 61 -8 97 0 60 5 77 58 185
32 66 66 129 75 139 33 38 104 76 144 76 34 0 38 -3 35 -22 -2 -16 -13 -25
-41 -33 -41 -11 -58 -30 -50 -52 7 -18 37 -17 75 3 17 9 54 18 83 20 51 5 56
3 107 -39 102 -83 156 -236 125 -355 l-14 -53 50 3 c51 3 51 3 60 43 15 67 1
188 -29 250 -37 80 -123 168 -198 205 l-63 31 -7 197 c-4 108 -8 210 -9 226
l-2 28 210 -3 c331 -6 542 -5 793 5 139 6 232 5 232 0 0 -5 -7 -58 -14 -119
-8 -60 -18 -168 -22 -239 l-7 -129 -30 -16 c-49 -26 -109 -83 -123 -117 -7
-18 -16 -69 -20 -115 -3 -46 -12 -103 -20 -127 -8 -23 -14 -61 -14 -82 l0 -40
45 0 45 0 0 39 c0 22 5 52 12 68 6 15 14 71 18 124 4 80 10 102 30 132 32 46
62 59 115 51 51 -7 94 -47 124 -115 25 -55 37 -196 23 -256 l-10 -43 43 0 c48
0 49 1 60 81 8 66 -18 182 -56 245 -18 29 -61 76 -96 106 l-65 53 6 115 c4 63
9 178 12 255 l6 140 -32 38 -33 38 -141 -2 -141 -2 -7 29 c-4 16 -18 79 -31
139 -66 303 -147 481 -280 622 -62 65 -116 102 -257 176 -143 74 -341 193
-362 219 -12 13 -18 37 -18 65 l0 45 213 -7 c217 -7 359 2 500 31 81 17 169
74 247 162 63 70 87 120 98 200 6 40 16 70 30 85 29 31 37 55 62 202 18 105
21 150 15 231 -5 79 -3 103 7 106 7 3 17 7 22 9 6 2 15 -18 20 -46 15 -70 39
-72 99 -6 70 78 86 183 37 236 -34 36 -10 47 43 20 67 -33 141 -41 226 -22 77
18 201 74 201 91 0 7 -27 12 -74 12 -46 1 -93 8 -123 19 -82 31 -193 127 -193
166 0 7 11 26 24 43 69 92 99 210 94 375 l-3 114 40 14 c78 26 154 111 205
231 28 65 19 83 -32 59 -30 -14 -47 -19 -115 -33 -38 -7 -27 22 20 54 54 38
80 67 107 120 30 57 16 72 -34 38 -43 -29 -108 -41 -173 -32 -75 10 -96 25
-105 75 -11 66 -58 159 -117 228 -85 103 -186 168 -346 223 -106 37 -112 55
-14 47 108 -9 199 -43 270 -98 42 -33 49 -35 49 -13 0 45 -121 183 -210 239
-118 75 -341 165 -409 165 -39 1 -41 13 -14 95 20 61 27 107 30 195 7 195 -19
282 -59 197 -24 -51 -161 -155 -183 -139 -6 4 -10 54 -10 111 0 64 -4 106 -10
108 -6 2 -32 -26 -58 -61z m-659 -1965 c43 -73 72 -170 79 -263 l6 -88 -79 -1
c-43 0 -110 -4 -149 -8 -38 -5 -72 -7 -74 -5 -2 1 6 15 16 31 45 64 113 265
128 378 l7 50 20 -25 c11 -13 31 -44 46 -69z m909 -176 c43 -65 108 -193 101
-200 -4 -4 -149 23 -155 28 -2 2 -8 41 -14 87 -9 71 -18 115 -45 215 -7 29 56
-44 113 -130z m-861 -377 c-10 -51 -53 -132 -95 -179 l-39 -44 -95 2 c-97 3
-247 32 -273 54 -8 6 -17 9 -21 5 -12 -11 60 -76 115 -104 l54 -27 -109 -6
c-163 -10 -221 -25 -260 -65 -25 -27 -40 -34 -69 -34 l-37 0 6 69 c13 162 123
266 322 307 39 8 165 23 280 33 116 10 214 19 219 20 5 0 6 -14 2 -31z m900 2
c114 -20 104 -12 104 -91 0 -71 -15 -154 -32 -176 -6 -8 -48 -11 -134 -10
-106 2 -123 4 -118 17 28 63 64 178 70 220 7 57 8 57 110 40z m-2261 -317 c12
-35 28 -70 35 -78 17 -21 7 -29 -19 -16 -31 17 -112 30 -144 24 -30 -6 -47
-30 -29 -42 6 -4 21 -29 33 -56 12 -28 28 -58 37 -67 24 -28 69 -22 104 12 31
32 32 55 1 28 -40 -35 -63 -41 -84 -22 -10 9 -19 21 -19 26 0 5 -9 27 -19 48
-22 45 -21 45 42 26 77 -23 197 -113 197 -147 0 -5 -17 -20 -39 -34 -48 -32
-61 -61 -61 -135 0 -52 3 -61 27 -79 56 -45 125 -34 131 21 3 23 -3 30 -37 48
-52 26 -66 66 -31 89 12 9 37 30 55 46 31 29 34 30 65 17 18 -7 51 -12 74 -10
40 3 41 4 40 38 -1 35 -1 35 47 38 28 1 72 -5 106 -17 56 -19 58 -21 60 -58 7
-96 26 -227 38 -258 22 -52 66 -80 185 -119 103 -34 118 -36 238 -36 240 0
505 34 577 73 58 32 78 80 83 198 l4 97 51 6 c27 4 62 9 77 12 l26 6 10 -121
c12 -139 17 -149 103 -183 49 -20 73 -23 196 -22 83 1 183 8 245 18 138 23
200 30 200 22 0 -4 -14 -37 -30 -74 -22 -48 -48 -83 -90 -123 -140 -131 -293
-165 -705 -153 -128 4 -241 4 -251 -1 -11 -4 -38 -7 -62 -6 -39 2 -43 0 -56
-31 -8 -18 -17 -51 -22 -72 l-7 -40 -23 51 c-12 28 -30 56 -41 61 -10 5 -72
12 -138 16 -294 16 -367 41 -397 132 -10 30 -19 40 -38 42 -61 8 -435 94 -459
106 -15 7 -62 13 -109 14 -221 1 -431 108 -506 256 -50 99 -53 264 -7 354 45
87 147 144 250 140 l63 -3 23 -62z m2285 -43 c0 -6 -7 -21 -15 -34 -15 -22
-14 -24 6 -29 22 -6 81 14 153 52 21 11 43 18 48 15 12 -7 -26 -53 -67 -81
-19 -13 -35 -30 -35 -38 0 -8 -7 -15 -15 -15 -20 0 -19 -19 0 -27 14 -5 88 6
163 24 23 5 23 5 16 -61 -4 -43 -3 -75 4 -89 6 -12 19 -48 30 -80 10 -32 22
-59 27 -59 6 -1 17 11 25 25 13 24 13 30 -5 63 -31 58 -17 244 20 244 7 0 18
7 25 15 38 45 39 -12 5 -207 -23 -136 -26 -145 -58 -174 -29 -27 -49 -34 -128
-48 -119 -20 -271 -36 -348 -36 -69 0 -186 33 -195 56 -3 9 -6 60 -6 115 0 67
-5 109 -14 128 -11 20 -13 42 -7 84 6 47 15 64 51 104 25 26 51 51 60 55 25
11 260 9 260 -2z m-1197 -27 c22 -3 34 -9 27 -13 -18 -11 52 -60 118 -82 93
-31 192 -41 274 -28 125 20 119 22 135 -35 16 -57 17 -132 2 -225 -13 -86 -35
-122 -84 -138 -53 -18 -268 -39 -465 -47 -158 -6 -168 -5 -235 18 -129 45
-155 59 -170 87 -25 49 -37 158 -30 280 11 179 21 185 280 188 61 1 127 -1
148 -5z m-258 -927 c22 -10 85 -23 140 -28 55 -5 149 -15 210 -22 l110 -11 16
-65 c35 -133 112 -123 149 20 21 83 20 81 48 78 25 -3 27 -6 28 -53 0 -28 3
-56 7 -62 8 -13 307 -191 425 -254 103 -54 197 -131 257 -211 57 -75 135 -233
135 -272 0 -52 -91 -431 -107 -446 -4 -5 -161 -14 -348 -21 -221 -7 -342 -15
-347 -23 -9 -14 -17 -98 -26 -266 l-7 -134 -38 -8 c-20 -4 -55 -17 -77 -28
-54 -27 -156 -129 -178 -176 -36 -79 -83 -132 -135 -154 -48 -21 -56 -21 -174
-11 -68 6 -148 11 -178 11 -54 0 -54 0 -64 38 -6 20 -11 55 -11 77 0 116 -40
336 -73 400 -30 60 -105 155 -438 555 -66 80 -124 152 -129 160 -12 22 50 150
114 235 79 104 169 198 367 381 l179 165 42 -25 c71 -41 194 -75 302 -82 73
-5 97 -4 92 5 -4 6 -31 11 -60 11 -78 0 -153 17 -223 49 -83 39 -97 63 -88
147 6 60 8 64 23 52 10 -8 35 -22 57 -32z m1584 -1061 c32 -135 50 -239 43
-246 -8 -7 -162 -18 -162 -12 0 2 18 78 40 168 22 90 40 172 40 182 0 37 18
-6 39 -92z"/>
<path d="M7591 5399 c-105 -23 -175 -49 -243 -90 -215 -131 -355 -331 -397
-573 -28 -155 -2 -348 65 -488 9 -20 14 -43 11 -52 -4 -9 -44 -40 -89 -70 -46
-30 -91 -63 -101 -74 -17 -19 -17 -19 20 -12 21 5 61 16 88 25 28 8 72 22 98
30 l48 14 62 -66 c200 -211 487 -304 764 -247 245 50 452 211 567 442 86 171
106 372 56 567 -20 77 -78 210 -103 237 -7 7 -25 32 -41 56 -71 104 -241 229
-371 272 -156 51 -294 61 -434 29z m366 -50 c170 -44 335 -165 439 -321 93
-139 130 -265 128 -438 -2 -178 -45 -310 -149 -455 -150 -209 -406 -329 -668
-312 -122 8 -192 27 -307 84 -80 40 -111 63 -194 145 -96 94 -102 98 -135 93
-36 -6 -36 -6 -13 11 28 21 28 43 -2 102 -54 107 -71 187 -71 337 1 159 14
225 71 340 117 237 330 394 592 435 79 12 216 3 309 -21z"/>
<path d="M7760 4994 c-71 -64 -109 -162 -135 -346 -8 -57 -15 -138 -15 -180 0
-89 17 -118 70 -118 61 0 154 134 211 301 25 75 29 102 29 196 0 98 -3 114
-23 144 -18 27 -31 35 -59 37 -31 3 -44 -3 -78 -34z"/>
<path d="M6170 3105 c0 -16 -6 -25 -15 -25 -8 0 -15 -6 -15 -14 0 -8 -8 -13
-17 -12 -10 0 -18 -5 -19 -11 -1 -7 -2 -18 -3 -24 -1 -8 -6 -8 -16 1 -11 9
-12 16 -4 26 11 14 5 34 -11 34 -5 0 -14 -9 -20 -19 -16 -30 16 -60 68 -63 38
-2 41 -4 35 -22 -3 -12 -6 -33 -5 -47 1 -15 -3 -37 -8 -50 -10 -22 -10 -22 -6
6 6 40 -15 69 -46 61 -13 -3 -9 1 10 9 31 15 46 30 18 19 -8 -3 -24 -1 -35 5
-23 13 -26 9 -35 -41 -6 -31 -4 -37 8 -32 13 5 13 2 3 -20 -16 -34 -25 -33
-36 7 -5 17 -10 26 -10 20 -1 -7 -8 -13 -16 -13 -8 0 -15 -4 -15 -10 0 -5 6
-7 14 -4 8 3 16 -3 19 -15 4 -17 2 -19 -20 -10 -13 5 -38 9 -55 9 -27 0 -30
-3 -26 -24 3 -17 1 -23 -8 -19 -7 2 -17 -5 -24 -16 -6 -12 -7 -21 -3 -21 4 0
2 -5 -5 -12 -7 -7 -12 -20 -12 -30 0 -10 -4 -18 -10 -18 -18 0 -10 -28 17 -59
31 -35 43 -39 43 -14 0 14 3 13 16 -5 19 -28 34 -28 34 -1 0 18 2 20 15 9 9
-7 12 -16 7 -19 -5 -3 -13 -17 -17 -30 -6 -21 -5 -23 11 -16 19 8 48 13 89 14
18 1 20 6 17 41 -2 22 0 40 4 40 5 0 10 -17 12 -37 3 -43 8 -51 24 -35 7 7 19
12 28 12 13 -1 12 -3 -2 -14 -22 -16 -23 -26 -3 -26 9 0 15 -9 15 -22 0 -18
-2 -20 -10 -8 -7 12 -12 11 -28 -8 -22 -25 -38 -28 -45 -9 -2 6 -8 9 -12 4 -5
-4 0 -14 11 -21 15 -11 16 -17 7 -27 -9 -9 -20 -4 -48 25 -38 40 -41 55 -6 36
17 -9 21 -8 21 4 0 22 -17 29 -56 22 -27 -6 -34 -12 -34 -30 0 -13 -7 -29 -15
-36 -8 -7 -15 -19 -15 -26 0 -8 -5 -14 -11 -14 -7 0 -9 10 -7 25 3 13 0 26 -6
29 -6 2 -1 5 12 5 19 1 22 6 22 41 0 28 -4 38 -13 34 -7 -2 -22 4 -34 15 -18
17 -23 18 -33 6 -6 -8 -9 -19 -5 -25 4 -6 -3 -9 -17 -7 -18 2 -24 -3 -26 -25
-2 -16 -8 -28 -13 -28 -6 0 -7 -9 -4 -20 7 -23 -5 -26 -24 -7 -10 10 -11 7 -6
-15 5 -19 2 -29 -12 -37 -17 -11 -17 -12 1 -26 17 -13 17 -15 3 -15 -24 0 -40
-35 -23 -49 11 -9 15 -7 19 9 7 25 37 26 64 1 12 -11 23 -17 27 -14 3 3 12 1
19 -5 8 -7 17 -9 20 -5 4 3 7 2 7 -4 0 -14 -32 -26 -39 -15 -3 5 -15 14 -26
20 -16 8 -24 7 -40 -6 -11 -9 -14 -10 -7 -2 16 19 15 30 -3 30 -15 0 -18 -9
-16 -40 0 -10 -1 -11 -5 -2 -3 6 -9 12 -14 12 -11 0 -34 -59 -26 -67 3 -3 6
-1 6 5 0 7 7 12 16 12 9 0 22 7 29 17 16 22 35 8 35 -25 -1 -23 -2 -25 -11 -9
-14 23 -33 22 -26 -3 5 -21 -8 -29 -15 -9 -5 15 -48 -6 -48 -24 1 -17 22 -42
43 -50 9 -3 17 -11 17 -17 0 -15 -16 -12 -30 5 -7 8 -19 15 -27 15 -12 0 -15
-14 -11 -74 4 -81 6 -86 37 -89 11 -1 21 -7 21 -13 0 -8 -11 -11 -30 -9 -16 2
-30 -1 -30 -6 0 -6 5 -7 10 -4 6 3 10 1 10 -4 0 -6 -4 -11 -8 -11 -12 0 -14
-78 -2 -85 5 -3 7 -26 4 -50 -6 -52 5 -61 46 -40 18 9 30 11 30 5 0 -6 -7 -13
-15 -16 -19 -8 -20 -34 -1 -34 7 0 19 -7 26 -15 9 -10 9 -15 1 -15 -6 0 -11 4
-11 9 0 5 -8 11 -17 15 -10 3 -24 9 -32 12 -11 5 -13 -1 -7 -32 4 -22 8 -47 8
-56 -1 -10 4 -20 9 -23 5 -4 6 -11 3 -17 -8 -13 14 -28 44 -28 14 0 21 -4 17
-11 -4 -6 -13 -8 -21 -5 -22 8 -30 -25 -10 -36 9 -5 16 -19 15 -31 -3 -34 10
-55 31 -50 15 4 17 11 13 41 -4 24 -3 33 5 28 6 -4 9 -13 5 -21 -3 -8 -2 -15
2 -15 15 0 35 30 35 52 0 16 3 19 9 10 10 -17 42 45 33 66 -4 11 -1 14 11 9
15 -6 22 3 18 26 -1 7 14 11 37 8 18 -3 43 19 36 30 -3 5 -18 7 -34 4 -18 -3
-34 1 -44 11 -9 8 -20 12 -26 9 -5 -3 -10 -2 -10 4 0 5 -3 16 -6 25 -4 11 -1
16 11 16 9 0 14 -4 11 -8 -6 -10 34 -46 42 -37 3 3 1 15 -6 26 -7 11 -10 24
-7 29 4 6 -1 10 -9 10 -9 0 -16 4 -16 10 0 5 -7 7 -16 3 -14 -5 -15 -3 -5 15
13 25 14 35 2 28 -18 -11 -21 27 -4 40 17 13 17 14 -4 20 -18 5 -23 13 -22 38
2 30 2 30 6 4 5 -33 14 -35 30 -9 9 15 9 21 1 23 -8 3 -9 11 -3 24 4 10 9 23
9 27 1 4 7 11 14 15 9 6 7 14 -10 31 -18 20 -19 27 -9 43 11 18 10 19 -8 13
-12 -4 -21 -2 -21 4 0 6 4 11 8 11 5 0 18 10 31 21 18 17 20 24 11 33 -9 8
-14 8 -17 -1 -3 -7 -9 -13 -15 -13 -7 0 -6 5 1 14 6 7 8 21 5 30 -5 14 -2 16
20 12 34 -6 45 17 21 44 -12 14 -14 23 -7 36 8 14 5 22 -11 36 -11 10 -27 16
-34 14 -7 -3 -15 -1 -18 4 -4 6 -19 10 -35 10 -29 0 -48 15 -35 28 3 3 10 0
15 -8 6 -8 10 -12 10 -8 0 4 11 3 24 -2 17 -6 26 -5 30 3 5 9 7 9 12 0 9 -20
34 -15 34 5 0 12 -7 18 -20 18 -10 -1 -20 3 -22 8 -2 5 12 10 30 10 29 1 32
-2 32 -26 0 -16 5 -28 10 -28 6 0 10 8 10 17 0 15 1 15 13 -2 10 -13 21 -16
40 -11 21 5 27 3 27 -10 0 -26 23 -11 45 29 11 20 22 37 25 37 3 0 7 -20 8
-45 1 -33 -3 -47 -13 -51 -24 -10 -17 -21 15 -26 30 -5 44 15 18 25 -10 4 -10
6 0 6 6 1 12 10 12 21 0 14 6 20 17 18 11 -2 22 6 28 20 14 31 40 24 40 -11
-1 -15 3 -27 8 -27 4 0 5 -16 1 -35 -8 -43 10 -47 24 -6 8 23 7 31 -4 35 -8 3
-14 16 -14 28 0 17 3 19 9 9 12 -18 32 -5 24 16 -5 12 -2 15 10 10 19 -7 33
10 35 41 0 15 -5 22 -19 22 -10 0 -19 -5 -19 -11 0 -5 -4 -8 -10 -4 -5 3 -6
13 -3 22 4 11 2 14 -8 11 -21 -7 -24 -48 -4 -48 9 0 14 -4 10 -10 -9 -15 -36
0 -46 26 -12 34 -41 32 -33 -1 5 -21 3 -25 -16 -25 -17 0 -20 -3 -12 -13 8 -9
6 -16 -7 -24 -19 -12 -31 -8 -31 9 0 5 4 7 8 4 5 -3 14 12 22 32 7 20 20 42
29 49 9 7 12 13 6 13 -5 0 -4 4 4 9 19 12 4 49 -22 53 -19 4 -18 6 14 22 28
14 35 23 31 38 -4 18 -3 18 20 -3 13 -13 23 -27 21 -32 -3 -4 3 -14 11 -23 9
-8 16 -21 16 -27 0 -7 -4 -6 -10 3 -7 11 -12 12 -21 3 -6 -6 -18 -9 -25 -6
-10 4 -14 -4 -14 -26 0 -34 2 -36 31 -20 15 7 24 7 33 0 8 -6 21 -9 29 -5 9 3
24 -1 32 -10 9 -9 12 -16 6 -16 -6 0 -11 -5 -11 -11 0 -8 5 -8 15 1 17 14 20
40 4 40 -16 0 -37 25 -45 54 -7 29 6 34 30 11 8 -8 17 -15 20 -15 12 0 6 28
-8 40 -15 12 -10 44 5 34 10 -6 12 56 3 80 -9 22 -27 20 -20 -2 4 -13 -5 -28
-29 -50 -46 -42 -55 -41 -16 3 30 34 46 74 19 47 -17 -17 -33 -15 -18 3 11 13
8 15 -14 15 -14 0 -26 5 -26 11 0 6 7 8 17 5 10 -4 23 1 35 14 22 24 47 28 28
5 -7 -9 -10 -18 -7 -21 7 -8 47 14 47 27 0 5 11 7 26 3 18 -5 25 -3 20 4 -3 6
-2 13 4 17 7 4 7 12 0 25 -5 10 -10 28 -10 40 0 12 -8 34 -18 48 -36 51 -36
53 -4 47 26 -4 29 -2 25 15 -3 11 -9 20 -14 20 -14 0 -11 48 4 53 9 4 8 8 -3
17 -11 9 -12 13 -2 17 27 11 12 33 -23 33 -28 0 -35 -4 -35 -19 0 -10 7 -21
15 -24 10 -4 13 -16 10 -42 -3 -22 -1 -35 7 -35 6 0 8 -3 5 -7 -4 -3 -16 2
-27 12 -15 13 -17 21 -9 31 7 9 7 19 -2 36 -13 22 -13 22 -17 3 -6 -30 -21
-42 -31 -26 -5 7 -14 10 -20 6 -8 -5 -9 -11 -2 -19 7 -9 7 -16 -1 -24 -16 -16
-29 -15 -22 2 7 17 -12 56 -27 56 -6 0 -8 -7 -5 -16 10 -27 -4 -37 -26 -18
-16 15 -21 16 -28 5 -4 -8 -5 -21 -2 -30 5 -14 3 -14 -10 -3 -11 9 -18 10 -23
2 -3 -6 -11 -8 -16 -4 -11 7 7 34 23 34 5 0 17 7 26 16 11 11 17 13 20 5 2 -6
8 -9 12 -6 5 3 7 12 3 20 -3 8 0 15 6 15 6 0 11 7 11 15 0 10 -11 15 -35 15
-31 0 -35 -3 -35 -25z m-101 -321 c-17 -21 -6 -26 24 -11 15 8 24 17 20 20 -3
4 -2 7 4 7 18 0 29 -24 27 -61 -1 -32 1 -35 21 -31 13 2 26 -1 30 -8 5 -7 1
-11 -11 -10 -32 4 -37 1 -24 -15 7 -9 10 -18 7 -21 -3 -4 -20 16 -37 42 -24
39 -36 49 -59 50 -22 1 -28 -2 -24 -13 3 -8 12 -12 19 -9 8 3 14 -1 14 -8 0
-8 -7 -16 -15 -20 -9 -3 -15 -18 -15 -36 0 -16 -4 -30 -9 -30 -13 0 -20 35 -9
54 8 14 4 15 -33 11 -23 -3 -46 -8 -51 -11 -5 -3 -15 0 -23 6 -11 9 -15 9 -15
1 0 -6 -7 -11 -15 -11 -8 0 -15 3 -15 8 0 12 51 31 68 25 11 -4 9 1 -6 15 -16
14 -20 22 -11 28 7 4 17 0 24 -9 7 -10 15 -17 19 -17 11 0 6 18 -10 35 -26 25
-10 28 30 5 46 -25 49 -25 42 4 -5 20 -2 24 19 24 21 0 23 -3 14 -14z"/>
<path d="M7410 3117 c0 -6 5 -19 10 -27 7 -12 12 -12 22 -2 14 14 32 16 23 2
-3 -5 4 -11 17 -11 17 -1 18 -3 6 -6 -21 -5 -22 -9 -6 -27 9 -9 22 -11 40 -6
20 6 28 4 33 -8 3 -8 1 -20 -5 -26 -7 -7 -10 -5 -10 7 0 20 -36 24 -43 5 -3
-10 -7 -10 -20 0 -9 8 -24 13 -34 12 -33 -4 -37 0 -17 15 19 14 18 14 -3 15
-18 0 -23 -6 -23 -25 0 -14 4 -25 9 -25 5 0 7 -9 4 -20 -3 -12 0 -20 8 -20 7
0 10 3 6 6 -3 4 0 13 8 20 17 18 26 18 19 0 -3 -8 4 -16 18 -20 35 -9 38 -8
38 14 0 11 4 20 10 20 5 0 7 -7 4 -15 -4 -8 -2 -15 4 -15 6 0 17 -3 26 -6 11
-4 16 -1 16 10 0 11 9 16 28 16 15 0 44 3 65 6 33 6 37 4 37 -15 0 -28 16 -27
25 2 5 16 8 18 12 7 14 -40 63 -46 63 -8 0 10 4 17 9 13 5 -3 12 -1 16 4 3 5
-3 14 -12 20 -17 10 -17 10 0 11 9 0 17 -5 17 -11 0 -6 6 -9 13 -6 14 4 16 27
2 28 -5 0 -16 6 -23 11 -10 9 -10 13 0 19 9 6 8 10 -5 15 -9 3 -17 12 -17 20
0 10 -14 14 -50 14 l-50 0 0 -36 c0 -34 -2 -36 -25 -30 -18 5 -25 2 -25 -9 0
-9 9 -15 22 -15 47 0 6 -12 -46 -13 -47 -2 -56 1 -56 15 0 10 -6 18 -14 18 -9
0 -12 7 -9 20 4 17 14 20 54 20 37 0 49 4 49 15 0 11 -12 15 -50 15 -36 0 -50
-4 -50 -14 0 -7 -9 -16 -20 -19 -14 -4 -20 0 -20 13 0 14 -9 18 -50 19 -34 0
-50 -3 -50 -12z"/>
<path d="M7974 3113 c2 -10 7 -28 11 -40 4 -15 2 -23 -6 -23 -7 0 -10 -3 -6
-6 11 -11 47 8 47 25 0 10 3 20 6 24 7 7 44 -14 44 -26 0 -4 -4 -5 -10 -2 -13
8 -13 -1 2 -25 7 -10 8 -23 4 -27 -5 -4 -11 -2 -13 5 -3 7 -22 12 -45 12 -32
0 -39 -3 -34 -16 3 -9 6 -22 6 -30 0 -21 17 -17 23 6 7 25 27 26 27 1 0 -27
46 -25 55 3 l6 21 9 -23 c5 -12 7 -29 4 -37 -4 -8 -3 -15 0 -15 9 0 46 39 46
49 0 5 9 11 21 14 14 4 23 -1 29 -16 l9 -22 0 23 c1 25 11 28 29 10 9 -9 12
-9 12 0 0 7 7 12 15 12 8 0 15 5 15 11 0 7 -10 9 -25 5 -15 -4 -25 -2 -25 4 0
6 5 8 10 5 15 -9 12 4 -5 21 -13 14 -15 13 -15 -5 0 -12 -4 -21 -9 -21 -5 0
-8 11 -5 25 5 31 -21 35 -29 5 -3 -11 -1 -18 4 -14 5 3 9 -1 9 -8 0 -8 -11
-14 -25 -14 -20 0 -24 4 -19 20 5 14 3 18 -10 13 -8 -3 -18 -2 -22 4 -7 13 25
38 49 39 9 0 17 7 17 15 0 18 -26 20 -33 3 -4 -10 -6 -10 -6 0 -1 17 -31 15
-31 -3 0 -8 -7 -15 -15 -15 -8 0 -15 7 -15 15 0 12 -13 15 -56 15 -48 0 -55
-2 -50 -17z"/>
<path d="M7830 2942 c0 -6 5 -14 10 -17 6 -3 10 -15 10 -25 0 -10 5 -20 12
-22 7 -3 12 -20 11 -40 -1 -29 2 -35 17 -31 9 3 20 -1 22 -9 4 -10 -4 -12 -33
-10 -44 5 -55 -15 -11 -20 22 -2 28 -9 32 -37 l5 -35 33 33 c25 25 38 32 56
27 14 -3 26 -2 28 4 2 6 16 6 41 -1 41 -11 62 -4 37 11 -15 10 -58 15 -97 11
-29 -2 -29 10 -2 27 l21 13 -22 24 c-14 15 -31 22 -51 21 -26 -2 -30 1 -25 18
3 12 6 24 6 29 0 4 10 7 23 6 12 0 16 -3 10 -6 -18 -7 -16 -23 2 -23 8 0 24
-13 37 -30 12 -16 30 -30 40 -30 30 0 20 18 -22 42 -22 13 -40 29 -40 37 0 16
-29 40 -47 41 -7 0 -13 -9 -13 -20 0 -12 -7 -20 -16 -20 -10 0 -14 -6 -11 -15
4 -8 2 -17 -3 -20 -6 -4 -10 9 -10 29 0 20 -4 36 -9 36 -5 0 -16 3 -25 6 -9 3
-16 1 -16 -4z"/>
<path d="M8208 2940 c-9 -6 -19 -24 -23 -40 -4 -17 -11 -28 -16 -24 -5 3 -5
13 1 24 13 25 13 30 -4 30 -22 0 -28 -17 -21 -50 4 -18 13 -30 22 -30 14 0 14
-2 0 -18 -28 -31 -22 -59 15 -66 39 -8 54 5 39 33 -13 23 -36 29 -28 7 3 -8
-1 -17 -9 -20 -8 -3 -14 0 -14 7 0 19 21 37 42 37 10 0 18 5 18 10 0 18 17 10
30 -15 16 -30 36 -32 45 -5 4 11 11 18 16 15 5 -4 9 1 9 9 0 22 -39 41 -53 27
-8 -8 -8 -11 1 -11 7 0 12 -5 12 -12 0 -6 -7 -4 -18 5 -22 20 -43 22 -60 5 -6
-6 -14 -9 -17 -6 -3 3 1 13 10 21 8 9 14 22 13 29 -2 9 8 13 30 12 17 -1 32 2
32 7 0 5 8 9 17 9 14 0 14 3 5 12 -10 10 -15 10 -22 -2 -8 -12 -13 -13 -30 -2
-23 14 -21 14 -42 2z"/>
<path d="M8280 2765 c0 -8 5 -15 10 -15 6 0 10 4 10 9 0 5 15 8 33 6 34 -3 36
-7 12 -31 -13 -14 -15 -14 -15 0 0 9 -7 16 -15 16 -21 0 -19 -27 3 -39 16 -10
15 -12 -10 -15 -15 -1 -23 -26 -9 -26 7 0 9 -10 5 -25 -5 -19 -2 -25 10 -25 9
0 16 -4 16 -10 0 -5 -9 -10 -20 -10 -22 0 -50 42 -32 48 8 2 8 10 0 28 -16 34
-31 30 -26 -6 6 -41 -18 -40 -27 2 l-7 32 -19 -23 c-11 -13 -19 -35 -19 -50 0
-35 -10 -47 -42 -55 -16 -3 -28 -13 -28 -21 0 -19 -24 -19 -44 0 -19 19 -36
19 -36 -1 0 -8 4 -13 9 -9 5 3 16 -2 25 -11 9 -8 21 -12 27 -8 8 4 9 3 5 -4
-4 -7 -15 -12 -24 -13 -9 0 -12 -3 -6 -5 6 -2 9 -19 7 -37 -3 -18 -1 -27 4
-22 10 13 108 12 108 -1 0 -5 4 -15 8 -21 5 -8 4 -13 -2 -13 -6 0 -11 5 -11
10 0 14 -77 13 -103 -2 l-22 -12 25 -6 c15 -3 26 -15 30 -29 5 -21 7 -22 19
-7 11 13 11 17 -3 22 -9 3 -13 10 -10 15 9 15 18 10 30 -15 9 -18 8 -25 -5
-33 -13 -8 -13 -14 -1 -42 10 -25 10 -35 1 -40 -8 -5 -9 -15 -2 -32 10 -24 10
-24 10 -1 1 15 7 22 21 22 11 0 20 -4 20 -10 0 -5 -4 -10 -10 -10 -5 0 -10 -4
-10 -10 0 -5 7 -10 15 -10 8 0 15 5 15 12 0 6 3 9 6 5 3 -3 24 1 46 9 38 13
40 13 45 -6 6 -21 33 -28 33 -8 0 9 3 9 12 0 19 -19 60 -15 56 6 -2 11 -11 16
-27 14 l-23 -4 22 22 c12 12 19 24 16 27 -8 8 -27 -8 -21 -18 4 -5 -1 -9 -10
-9 -9 0 -13 5 -10 10 3 6 -1 10 -10 10 -9 0 -13 -4 -10 -10 3 -5 1 -10 -5 -10
-7 0 -9 7 -6 16 4 11 -1 18 -14 21 -31 8 -12 25 21 18 34 -8 38 7 8 29 -20 14
-20 15 -2 33 21 21 58 17 58 -6 0 -8 6 -16 14 -19 10 -3 12 2 7 22 -7 28 8 36
22 11 5 -10 15 -13 25 -9 13 5 14 10 6 26 -9 16 -19 19 -50 16 -30 -3 -39 0
-39 12 0 16 3 16 83 12 18 -1 27 -7 24 -14 -2 -7 2 -21 11 -30 13 -16 13 -18
0 -18 -8 0 -27 -11 -43 -24 -26 -23 -27 -25 -15 -62 17 -51 36 -70 43 -44 3
11 11 20 19 19 10 0 10 -2 1 -6 -18 -7 -16 -33 2 -33 8 0 15 -5 15 -10 0 -6
-7 -13 -15 -16 -20 -8 -19 -30 1 -38 22 -8 26 -8 19 4 -3 6 -1 10 4 10 16 0
14 117 -1 123 -10 4 -10 6 0 6 6 1 12 8 12 16 0 9 -6 12 -15 9 -11 -5 -15 1
-15 20 0 15 7 29 15 32 8 4 15 12 15 20 0 8 -7 14 -15 14 -8 0 -15 5 -15 10 0
6 7 10 16 10 23 0 11 24 -14 28 -12 2 -22 10 -22 18 0 10 7 13 25 8 15 -4 25
-2 25 5 0 6 -6 11 -12 11 -9 0 -8 4 2 10 11 7 12 12 3 18 -6 4 -11 16 -10 27
1 14 -4 20 -15 19 -10 -1 -18 2 -18 7 0 5 5 9 10 9 15 0 12 26 -4 39 -10 8
-16 9 -21 1 -11 -18 -23 -11 -18 10 3 11 9 20 14 20 5 0 9 5 9 11 0 6 -12 9
-27 7 -24 -3 -28 0 -25 20 3 17 -2 22 -18 22 -12 0 -18 5 -15 10 3 6 15 10 26
10 10 0 19 4 19 9 0 5 -34 9 -75 10 -61 1 -75 -2 -75 -14z m108 -115 c10 0 10
-5 2 -20 -10 -19 -8 -19 35 -14 25 3 45 3 45 1 0 -16 -49 -51 -68 -49 -14 2
-22 -1 -20 -10 3 -15 -45 -13 -50 2 -2 6 -10 10 -18 10 -17 0 -19 -26 -1 -34
9 -5 9 -7 -1 -12 -11 -5 -10 -10 3 -24 15 -16 15 -18 -1 -24 -13 -5 -14 -9 -4
-21 14 -17 45 -21 35 -5 -3 6 -1 10 4 10 19 0 12 -27 -8 -33 -29 -7 -51 11
-51 44 0 26 -2 28 -14 17 -18 -18 -86 -11 -86 8 0 17 5 17 31 3 17 -8 25 -6
46 15 24 25 25 26 5 26 -11 0 -23 6 -26 13 -3 8 -9 7 -20 -7 -14 -17 -16 -17
-22 -3 -11 30 -24 18 -24 -24 0 -49 -23 -50 -24 0 -1 34 20 55 46 46 18 -7 42
10 34 23 -4 6 -14 8 -23 5 -11 -4 -14 -2 -11 8 5 13 25 14 58 3 13 -4 13 -6 0
-15 -13 -8 -13 -10 -1 -18 13 -9 58 4 71 20 3 3 15 11 28 18 30 16 28 33 -3
25 -19 -5 -25 -2 -25 11 0 13 6 16 23 11 12 -3 28 -6 35 -6z"/>
<path d="M8025 2740 c-8 -14 4 -32 17 -24 5 4 4 -4 -2 -17 l-13 -23 -29 35
c-24 28 -28 30 -23 12 4 -13 2 -23 -4 -23 -13 0 -10 -43 4 -52 6 -5 3 -8 -7
-8 -13 0 -18 8 -18 30 0 46 -35 38 -53 -12 -4 -12 -2 -15 9 -11 7 3 14 1 14
-4 0 -6 20 -18 45 -29 25 -10 45 -22 45 -26 0 -17 27 -7 48 17 26 30 27 35 8
35 -8 0 -18 -9 -21 -20 -13 -40 -58 -10 -48 31 3 11 0 19 -6 19 -6 0 -11 7
-11 15 0 8 4 15 9 15 11 0 24 -38 21 -62 -2 -24 16 -23 32 1 18 25 72 18 65
-9 -3 -13 2 -17 25 -18 17 0 26 3 22 10 -4 6 -1 14 6 18 7 4 9 13 6 19 -11 17
-27 13 -24 -5 2 -10 -3 -19 -9 -21 -9 -3 -11 1 -5 17 4 11 6 36 4 54 -4 32 -6
34 -43 34 -21 1 -43 3 -48 7 -5 3 -12 1 -16 -5z"/>
</g>
</svg>
