<?xml version="1.0" standalone="no"?>
<!DOCTYPE svg PUBLIC "-//W3C//DTD SVG 20010904//EN"
 "http://www.w3.org/TR/2001/REC-SVG-20010904/DTD/svg10.dtd">
<svg version="1.0" xmlns="http://www.w3.org/2000/svg"
 width="527.000000pt" height="474.000000pt" viewBox="0 0 527.000000 474.000000"
 preserveAspectRatio="xMidYMid meet">
<metadata>
Created by potrace 1.16, written by Peter Selinger 2001-2019
</metadata>
<g transform="translate(0.000000,474.000000) scale(0.100000,-0.100000)"
fill="#000000" stroke="none">
<path d="M2424 3245 c-66 -70 -152 -118 -277 -156 l-67 -20 -33 25 c-17 13
-51 29 -75 36 -24 6 -45 17 -48 25 -23 59 -281 33 -387 -39 -20 -14 -37 -20
-39 -14 -6 18 -111 -10 -169 -45 -38 -23 -66 -50 -96 -94 -47 -71 -61 -132
-46 -199 10 -43 10 -44 -16 -44 -80 0 -192 -75 -230 -153 -37 -77 -21 -127 25
-76 20 23 89 58 114 59 8 0 -1 -10 -20 -21 -48 -29 -89 -68 -107 -103 -28 -54
-19 -186 12 -186 8 0 15 -6 15 -12 0 -7 3 -24 7 -37 l6 -23 -87 7 c-82 7 -86
6 -86 -13 0 -24 70 -89 107 -99 l28 -7 -35 -6 c-79 -12 -26 -70 65 -70 l45 0
-27 -41 c-46 -70 -32 -205 24 -226 10 -4 20 0 25 8 5 8 20 32 32 54 l24 39 15
-36 c8 -19 23 -42 33 -49 15 -11 19 -28 19 -84 0 -58 5 -79 30 -123 53 -98
164 -154 310 -158 71 -2 242 -34 250 -47 1 -1 0 -24 -3 -50 -4 -46 -6 -50
-100 -128 -248 -208 -315 -328 -342 -614 -11 -116 -12 -421 -2 -480 6 -35 11
-40 36 -43 24 -3 28 -1 21 15 -4 10 -12 84 -18 164 -9 125 -8 165 7 285 10 76
27 175 39 218 20 78 21 79 36 56 16 -25 22 -32 165 -206 48 -60 96 -127 106
-149 15 -33 40 -179 40 -235 0 -9 -10 -16 -22 -17 -45 -4 -93 -15 -123 -30
-32 -16 -105 -82 -105 -95 0 -16 22 -8 40 15 10 12 37 33 61 47 l44 24 -38
-44 c-30 -35 -35 -46 -22 -48 9 -2 25 8 36 22 11 14 40 39 64 56 41 28 45 29
119 22 l77 -7 -30 -35 c-37 -43 -39 -60 -6 -60 18 0 28 7 35 24 6 15 17 23 32
23 13 0 43 10 65 21 l42 20 7 -44 c9 -65 29 -56 30 14 0 101 80 222 147 222
25 0 21 -19 -8 -30 -14 -5 -25 -13 -25 -18 0 -16 12 -21 29 -13 9 4 31 11 48
14 68 13 142 -95 130 -188 -6 -42 -5 -45 17 -45 27 0 36 17 36 63 0 81 -54
168 -125 201 l-35 17 0 88 c0 49 -3 101 -6 117 l-6 29 327 1 327 1 -6 -76
c-15 -173 -16 -180 -45 -197 -39 -23 -52 -49 -61 -118 -5 -34 -12 -76 -15 -93
-7 -30 -5 -33 16 -33 21 0 26 7 37 53 6 29 12 69 12 90 0 68 62 100 109 56 31
-30 41 -61 41 -135 0 -61 1 -64 24 -64 37 0 44 32 25 121 -9 41 -21 61 -58 98
l-48 46 8 120 c6 99 5 125 -8 152 l-15 33 -79 0 c-78 0 -79 0 -84 28 -59 288
-121 388 -301 483 -138 72 -194 111 -194 134 0 23 0 23 123 18 159 -7 256 8
319 48 60 39 105 99 113 153 4 22 14 48 21 57 20 22 47 184 40 239 -3 27 -2
35 2 20 10 -33 38 -37 68 -9 27 25 48 90 39 119 -6 18 -3 18 25 8 41 -14 106
-4 164 24 60 29 60 48 2 48 -58 0 -93 14 -132 51 l-32 31 31 59 c26 51 31 71
31 138 l1 79 33 18 c54 29 116 133 98 163 -4 6 -19 5 -41 -5 -19 -8 -36 -14
-38 -14 -2 0 13 18 35 40 21 23 38 50 38 60 0 24 -3 24 -55 6 -51 -17 -115
-10 -115 13 0 26 -45 113 -74 143 -42 44 -88 75 -141 97 -27 11 -44 20 -38 20
21 1 114 -37 134 -55 17 -16 19 -16 25 0 8 21 -34 86 -78 119 -47 36 -146 84
-204 98 -27 7 -50 12 -51 13 -1 1 5 26 13 56 18 71 19 194 0 209 -10 9 -19 4
-39 -21 -13 -18 -38 -40 -53 -50 l-29 -16 0 55 c0 31 -4 58 -10 59 -5 2 -37
-25 -71 -61z m-297 -1045 c21 -48 33 -141 19 -145 -6 -2 -41 -5 -77 -8 l-67
-5 24 52 c12 28 28 74 34 101 19 83 19 83 37 60 8 -11 22 -36 30 -55z m13
-252 c0 -22 -44 -90 -70 -109 -22 -17 -33 -17 -100 -8 -41 6 -82 15 -92 20
-39 21 -15 -9 29 -37 l47 -29 -87 -5 c-71 -5 -90 -9 -110 -28 -55 -52 -76 -5
-34 78 17 36 34 51 78 73 53 26 97 34 327 56 6 0 12 -5 12 -11z m518 -23 c11
-10 12 -25 5 -66 l-8 -54 -69 -3 c-62 -3 -68 -1 -62 15 4 10 15 44 23 76 l17
58 40 -6 c23 -4 47 -13 54 -20z m-1240 -142 c5 -16 13 -36 17 -47 7 -16 5 -17
-13 -7 -22 12 -75 15 -85 5 -8 -8 33 -85 49 -91 16 -6 54 14 54 29 0 9 -3 9
-12 0 -21 -21 -46 -13 -57 18 -13 39 0 39 61 1 61 -39 66 -49 34 -75 -24 -18
-27 -27 -24 -66 3 -38 7 -46 31 -54 21 -8 31 -6 43 6 14 14 14 17 0 29 -51 43
-51 41 -15 70 28 23 37 25 61 17 31 -11 61 4 52 26 -6 15 32 18 72 6 29 -10
31 -13 41 -91 6 -48 17 -87 27 -98 9 -10 45 -28 80 -40 71 -24 162 -27 296
-11 151 19 180 38 180 120 0 58 7 66 53 72 l37 4 0 -52 c0 -68 6 -81 44 -102
38 -20 169 -22 269 -3 37 8 70 11 73 9 9 -10 -18 -64 -49 -96 -70 -74 -171
-98 -367 -89 -69 3 -143 2 -164 -1 -35 -6 -41 -12 -49 -42 -8 -31 -10 -32 -17
-15 -14 36 -32 43 -148 52 -96 9 -116 13 -137 33 -14 13 -25 29 -25 36 0 7
-24 17 -57 24 -32 6 -94 21 -138 32 -44 12 -89 21 -100 21 -48 -1 -142 20
-186 42 -110 56 -156 189 -100 292 16 31 78 62 123 63 30 0 38 -4 46 -27z
m1202 -43 c-14 -27 8 -27 61 1 54 27 60 17 15 -23 -20 -17 -36 -36 -36 -41 0
-5 22 -6 51 -2 l51 7 -3 -28 c-2 -32 21 -124 32 -124 13 0 19 32 9 50 -18 34
-12 98 12 122 30 30 33 14 18 -81 -15 -100 -27 -116 -92 -132 -79 -18 -263
-18 -281 1 -10 10 -17 49 -21 111 l-7 96 30 31 c27 30 33 32 100 32 69 0 71
-1 61 -20z m-597 -24 c37 -37 147 -56 215 -37 30 9 33 8 45 -21 18 -43 6 -154
-19 -178 -14 -14 -46 -22 -116 -29 -152 -17 -239 -14 -303 10 -68 25 -75 39
-75 156 0 119 4 123 131 123 90 0 100 -2 122 -24z m-34 -485 c57 -6 105 -11
107 -11 2 0 8 -18 14 -39 5 -21 16 -41 24 -44 19 -8 42 20 53 63 13 49 43 54
43 7 0 -33 4 -37 93 -90 50 -30 112 -64 135 -76 94 -48 202 -186 202 -257 -1
-29 -45 -222 -53 -231 -3 -2 -86 -7 -185 -10 -209 -7 -192 5 -192 -131 l0 -83
-44 -19 c-45 -19 -126 -92 -126 -114 -1 -31 -84 -91 -112 -81 -7 3 -47 6 -88
8 -86 3 -81 -6 -99 149 -12 107 -27 135 -136 268 -47 58 -111 135 -142 173
l-55 67 27 58 c21 44 62 91 176 203 l148 146 52 -25 c32 -16 72 -27 107 -28
l57 -3 -50 8 c-94 15 -141 51 -130 100 6 29 7 29 39 16 18 -8 79 -19 135 -24z"/>
<path d="M3976 2850 c-116 -30 -234 -131 -289 -247 -26 -57 -32 -83 -35 -158
-4 -76 0 -102 20 -163 l25 -72 -48 -31 c-49 -31 -75 -56 -67 -64 2 -2 37 5 77
16 l72 20 43 -39 c92 -85 203 -132 311 -132 213 0 402 165 435 380 28 183 -73
371 -246 456 -66 33 -83 37 -166 40 -51 2 -110 -1 -132 -6z m235 -50 c164 -51
274 -207 272 -385 -1 -73 -36 -190 -53 -180 -5 3 -13 -7 -16 -22 -10 -38 -54
-95 -69 -89 -7 2 -26 -11 -42 -29 -21 -24 -49 -39 -97 -54 -157 -49 -298 -9
-426 121 -90 91 -117 290 -58 420 33 71 77 130 91 121 5 -3 7 -1 4 4 -8 13 68
67 82 59 5 -4 14 1 19 9 24 44 189 58 293 25z"/>
<path d="M4095 2652 c-3 -7 -8 -11 -13 -8 -4 2 -20 -22 -36 -55 -22 -46 -31
-86 -39 -169 -12 -117 -6 -140 35 -140 12 0 17 -5 13 -12 -10 -19 32 31 64 77
45 65 64 123 66 205 1 58 -2 78 -14 88 -13 11 -13 12 -1 6 12 -5 13 -4 3 6
-16 17 -71 19 -78 2z"/>
</g>
</svg>
